<svg width="24" height="24" viewBox="0 0 24 24" fill="none" xmlns="http://www.w3.org/2000/svg">
<path d="M11.75 8C11.75 9.79579 10.2958 11.25 8.5 11.25C6.70421 11.25 5.25 9.79579 5.25 8C5.25 6.20421 6.70421 4.75 8.5 4.75C10.2958 4.75 11.75 6.20421 11.75 8ZM1.25 18C1.25 17.6105 1.43918 17.2138 1.8832 16.804C2.33232 16.3894 2.9903 16.0141 3.77765 15.6987C5.35356 15.0674 7.25876 14.75 8.5 14.75C9.74124 14.75 11.6464 15.0674 13.2223 15.6987C14.0097 16.0141 14.6677 16.3894 15.1168 16.804C15.5608 17.2138 15.75 17.6105 15.75 18V19C15.75 19.1358 15.6358 19.25 15.5 19.25H1.5C1.36421 19.25 1.25 19.1358 1.25 19V18Z" stroke="#F25C4F" stroke-width="1.5"/>
<path d="M15 7.5C15 7.30109 15.079 7.11032 15.2197 6.96967C15.3603 6.82902 15.5511 6.75 15.75 6.75H22.75C22.9489 6.75 23.1397 6.82902 23.2803 6.96967C23.421 7.11032 23.5 7.30109 23.5 7.5C23.5 7.69891 23.421 7.88968 23.2803 8.03033C23.1397 8.17098 22.9489 8.25 22.75 8.25H15.75C15.5511 8.25 15.3603 8.17098 15.2197 8.03033C15.079 7.88968 15 7.69891 15 7.5ZM22.75 11.25H15.75C15.5511 11.25 15.3603 11.329 15.2197 11.4697C15.079 11.6103 15 11.8011 15 12C15 12.1989 15.079 12.3897 15.2197 12.5303C15.3603 12.671 15.5511 12.75 15.75 12.75H22.75C22.9489 12.75 23.1397 12.671 23.2803 12.5303C23.421 12.3897 23.5 12.1989 23.5 12C23.5 11.8011 23.421 11.6103 23.2803 11.4697C23.1397 11.329 22.9489 11.25 22.75 11.25ZM22.75 15.75H19C18.8011 15.75 18.6103 15.829 18.4697 15.9697C18.329 16.1103 18.25 16.3011 18.25 16.5C18.25 16.6989 18.329 16.8897 18.4697 17.0303C18.6103 17.171 18.8011 17.25 19 17.25H22.75C22.9489 17.25 23.1397 17.171 23.2803 17.0303C23.421 16.8897 23.5 16.6989 23.5 16.5C23.5 16.3011 23.421 16.1103 23.2803 15.9697C23.1397 15.829 22.9489 15.75 22.75 15.75Z" fill="#F25C4F"/>
</svg>
